<svg xmlns="http://www.w3.org/2000/svg" viewBox="0 0 100 100">
  <defs>
    <linearGradient id="ndGrad" x1="0%" y1="0%" x2="100%" y2="100%">
      <stop offset="0%" stop-color="#c9a3f2"/>
      <stop offset="100%" stop-color="#6d28d9"/>
    </linearGradient>
  </defs>
  <!-- Coiled serpent/dragon body -->
  <path d="M70 20c12 6 16 20 10 30-5 8-15 10-15 18 0 6 5 9 11 8"
        fill="none" stroke="url(#ndGrad)" stroke-width="6" stroke-linecap="round"/>
  <path d="M70 20c8-8 20-8 24 2 3 8-2 15-10 15"
        fill="none" stroke="url(#ndGrad)" stroke-width="6" stroke-linecap="round"/>
  <!-- Head -->
  <path d="M62 14c-6-4-14-3-17 3-2 4 0 8 4 10-3 3-3 7 0 9 4 3 10 1 12-3"
        fill="none" stroke="url(#ndGrad)" stroke-width="6" stroke-linecap="round" stroke-linejoin="round"/>
  <!-- Horn -->
  <path d="M50 10c2-4 6-6 10-6" fill="none" stroke="url(#ndGrad)" stroke-width="5" stroke-linecap="round"/>
  <!-- Eye -->
  <circle cx="54" cy="20" r="2.4" fill="#e8e6ef"/>
</svg>
